# Blender 4.2.0
# www.blender.org
mtllib title.mtl
o Text
v 2.529000 0.000000 -0.682000
v 2.437000 0.000000 -0.682000
v 2.437000 0.000000 -0.154000
v 1.975000 0.000000 -0.682000
v 1.897000 0.000000 -0.682000
v 1.897000 0.000000 0.000000
v 1.989000 0.000000 0.000000
v 1.989000 0.000000 -0.525000
v 2.445000 0.000000 0.000000
v 2.529000 0.000000 0.000000
v 1.518000 0.000000 -0.686000
v 1.449000 0.000000 -0.686000
v 1.156000 0.000000 0.000000
v 1.256000 0.000000 0.000000
v 1.342000 0.000000 -0.201000
v 1.632000 0.000000 -0.201000
v 1.723000 0.000000 0.000000
v 1.823000 0.000000 0.000000
v 1.482000 0.000000 -0.536000
v 1.592000 0.000000 -0.289000
v 1.380000 0.000000 -0.289000
v 1.084000 0.000000 -0.682000
v 0.993000 0.000000 -0.682000
v 0.766000 0.000000 -0.402000
v 0.540000 0.000000 -0.682000
v 0.448000 0.000000 -0.682000
v 0.448000 0.000000 0.000000
v 0.546000 0.000000 0.000000
v 0.546000 0.000000 -0.531000
v 0.548000 0.000000 -0.531000
v 0.758000 0.000000 -0.267000
v 0.774000 0.000000 -0.267000
v 0.984000 0.000000 -0.531000
v 0.986000 0.000000 -0.531000
v 0.986000 0.000000 0.000000
v 1.084000 0.000000 0.000000
v 0.299000 0.000000 -0.682000
v 0.201000 0.000000 -0.682000
v 0.201000 0.000000 0.000000
v 0.299000 0.000000 0.000000
v -0.653000 0.000000 -0.341000
v -0.650097 0.000000 -0.295251
v -0.641523 0.000000 -0.250838
v -0.627484 0.000000 -0.208266
v -0.608185 0.000000 -0.168037
v -0.583830 0.000000 -0.130656
v -0.554625 0.000000 -0.096625
v -0.520774 0.000000 -0.066448
v -0.482482 0.000000 -0.040630
v -0.439953 0.000000 -0.019672
v -0.393394 0.000000 -0.004079
v -0.343008 0.000000 0.005646
v -0.289000 0.000000 0.009000
v -0.233214 0.000000 0.005627
v -0.181458 0.000000 -0.004148
v -0.133891 0.000000 -0.019813
v -0.090667 0.000000 -0.040852
v -0.051943 0.000000 -0.066752
v -0.017875 0.000000 -0.097000
v 0.011380 0.000000 -0.131081
v 0.035667 0.000000 -0.168481
v 0.054828 0.000000 -0.208688
v 0.068708 0.000000 -0.251185
v 0.077151 0.000000 -0.295461
v 0.080000 0.000000 -0.341000
v 0.077076 0.000000 -0.387800
v 0.068440 0.000000 -0.432898
v 0.054297 0.000000 -0.475844
v 0.034852 0.000000 -0.516185
v 0.010310 0.000000 -0.553471
v -0.019125 0.000000 -0.587250
v -0.053247 0.000000 -0.617071
v -0.091852 0.000000 -0.642482
v -0.134734 0.000000 -0.663031
v -0.181690 0.000000 -0.678269
v -0.232513 0.000000 -0.687742
v -0.287000 0.000000 -0.691000
v -0.340627 0.000000 -0.687723
v -0.390847 0.000000 -0.678199
v -0.437422 0.000000 -0.662891
v -0.480111 0.000000 -0.642259
v -0.518675 0.000000 -0.616767
v -0.552875 0.000000 -0.586875
v -0.582471 0.000000 -0.553046
v -0.607222 0.000000 -0.515741
v -0.626891 0.000000 -0.475422
v -0.641236 0.000000 -0.432551
v -0.650019 0.000000 -0.387590
v -0.552000 0.000000 -0.341000
v -0.549689 0.000000 -0.377626
v -0.542926 0.000000 -0.412343
v -0.531969 0.000000 -0.444906
v -0.517074 0.000000 -0.475074
v -0.498499 0.000000 -0.502603
v -0.476500 0.000000 -0.527250
v -0.451335 0.000000 -0.548772
v -0.423259 0.000000 -0.566926
v -0.392531 0.000000 -0.581469
v -0.359407 0.000000 -0.592157
v -0.324145 0.000000 -0.598749
v -0.287000 0.000000 -0.601000
v -0.249626 0.000000 -0.598749
v -0.214171 0.000000 -0.592157
v -0.180891 0.000000 -0.581469
v -0.150037 0.000000 -0.566926
v -0.121864 0.000000 -0.548772
v -0.096625 0.000000 -0.527250
v -0.074574 0.000000 -0.502603
v -0.055963 0.000000 -0.475074
v -0.041047 0.000000 -0.444906
v -0.030079 0.000000 -0.412343
v -0.023312 0.000000 -0.377626
v -0.021000 0.000000 -0.341000
v -0.023312 0.000000 -0.304584
v -0.030079 0.000000 -0.270005
v -0.041047 0.000000 -0.237516
v -0.055963 0.000000 -0.207370
v -0.074574 0.000000 -0.179822
v -0.096625 0.000000 -0.155125
v -0.121864 0.000000 -0.133532
v -0.150037 0.000000 -0.115296
v -0.180891 0.000000 -0.100672
v -0.214171 0.000000 -0.089912
v -0.249626 0.000000 -0.083270
v -0.287000 0.000000 -0.081000
v -0.324145 0.000000 -0.083270
v -0.359407 0.000000 -0.089912
v -0.392531 0.000000 -0.100672
v -0.423259 0.000000 -0.115296
v -0.451335 0.000000 -0.133532
v -0.476500 0.000000 -0.155125
v -0.498499 0.000000 -0.179822
v -0.517074 0.000000 -0.207370
v -0.531969 0.000000 -0.237516
v -0.542926 0.000000 -0.270005
v -0.549689 0.000000 -0.304584
v -0.765000 0.000000 -0.336000
v -0.994000 0.000000 -0.336000
v -0.994000 0.000000 -0.248000
v -0.863000 0.000000 -0.248000
v -0.863000 0.000000 -0.108000
v -0.874773 0.000000 -0.104318
v -0.886602 0.000000 -0.100792
v -0.898500 0.000000 -0.097453
v -0.910482 0.000000 -0.094333
v -0.922560 0.000000 -0.091464
v -0.934750 0.000000 -0.088875
v -0.947065 0.000000 -0.086599
v -0.959519 0.000000 -0.084667
v -0.972125 0.000000 -0.083109
v -0.984898 0.000000 -0.081958
v -0.997852 0.000000 -0.081245
v -1.011000 0.000000 -0.081000
v -1.050462 0.000000 -0.083193
v -1.087695 0.000000 -0.089630
v -1.122469 0.000000 -0.100094
v -1.154556 0.000000 -0.114370
v -1.183726 0.000000 -0.132244
v -1.209750 0.000000 -0.153500
v -1.232399 0.000000 -0.177922
v -1.251445 0.000000 -0.205296
v -1.266656 0.000000 -0.235406
v -1.277806 0.000000 -0.268037
v -1.284663 0.000000 -0.302973
v -1.287000 0.000000 -0.340000
v -1.284652 0.000000 -0.376226
v -1.277796 0.000000 -0.410722
v -1.266719 0.000000 -0.443219
v -1.251704 0.000000 -0.473444
v -1.233036 0.000000 -0.501129
v -1.211000 0.000000 -0.526000
v -1.185881 0.000000 -0.547788
v -1.157963 0.000000 -0.566222
v -1.127531 0.000000 -0.581031
v -1.094870 0.000000 -0.591945
v -1.060265 0.000000 -0.598691
v -1.024000 0.000000 -0.601000
v -1.003482 0.000000 -0.600522
v -0.982935 0.000000 -0.599093
v -0.962375 0.000000 -0.596719
v -0.941815 0.000000 -0.593407
v -0.921268 0.000000 -0.589166
v -0.900750 0.000000 -0.584000
v -0.880273 0.000000 -0.577918
v -0.859852 0.000000 -0.570926
v -0.839500 0.000000 -0.563031
v -0.819231 0.000000 -0.554241
v -0.799060 0.000000 -0.544561
v -0.779000 0.000000 -0.534000
v -0.779000 0.000000 -0.633000
v -0.804731 0.000000 -0.643594
v -0.828597 0.000000 -0.652921
v -0.850859 0.000000 -0.661047
v -0.871778 0.000000 -0.668037
v -0.891613 0.000000 -0.673958
v -0.910625 0.000000 -0.678875
v -0.929075 0.000000 -0.682855
v -0.947222 0.000000 -0.685963
v -0.965328 0.000000 -0.688266
v -0.983653 0.000000 -0.689829
v -1.002457 0.000000 -0.690718
v -1.022000 0.000000 -0.691000
v -1.072896 0.000000 -0.687873
v -1.121333 0.000000 -0.678736
v -1.166938 0.000000 -0.663953
v -1.209333 0.000000 -0.643889
v -1.248146 0.000000 -0.618908
v -1.283000 0.000000 -0.589375
v -1.313521 0.000000 -0.555655
v -1.339333 0.000000 -0.518111
v -1.360063 0.000000 -0.477109
v -1.375333 0.000000 -0.433014
v -1.384771 0.000000 -0.386189
v -1.388000 0.000000 -0.337000
v -1.384849 0.000000 -0.288178
v -1.375625 0.000000 -0.241926
v -1.360672 0.000000 -0.198563
v -1.340333 0.000000 -0.158407
v -1.314953 0.000000 -0.121780
v -1.284875 0.000000 -0.089000
v -1.250443 0.000000 -0.060387
v -1.212000 0.000000 -0.036259
v -1.169891 0.000000 -0.016938
v -1.124458 0.000000 -0.002741
v -1.076047 0.000000 0.006011
v -1.025000 0.000000 0.009000
v -1.001666 0.000000 0.008662
v -0.979074 0.000000 0.007630
v -0.957094 0.000000 0.005875
v -0.935593 0.000000 0.003370
v -0.914439 0.000000 0.000088
v -0.893500 0.000000 -0.004000
v -0.872645 0.000000 -0.008921
v -0.851741 0.000000 -0.014704
v -0.830656 0.000000 -0.021375
v -0.809259 0.000000 -0.028963
v -0.787418 0.000000 -0.037495
v -0.765000 0.000000 -0.047000
v -1.498000 0.000000 -0.682000
v -1.596000 0.000000 -0.682000
v -1.596000 0.000000 -0.285000
v -1.596178 0.000000 -0.269292
v -1.596755 0.000000 -0.254171
v -1.597797 0.000000 -0.239641
v -1.599370 0.000000 -0.225704
v -1.601541 0.000000 -0.212364
v -1.604375 0.000000 -0.199625
v -1.607938 0.000000 -0.187490
v -1.612296 0.000000 -0.175963
v -1.617516 0.000000 -0.165047
v -1.623662 0.000000 -0.154745
v -1.630802 0.000000 -0.145062
v -1.639000 0.000000 -0.136000
v -1.647228 0.000000 -0.128406
v -1.656407 0.000000 -0.121162
v -1.666531 0.000000 -0.114328
v -1.677593 0.000000 -0.107963
v -1.689584 0.000000 -0.102126
v -1.702500 0.000000 -0.096875
v -1.716332 0.000000 -0.092270
v -1.731074 0.000000 -0.088370
v -1.746719 0.000000 -0.085234
v -1.763259 0.000000 -0.082921
v -1.780689 0.000000 -0.081490
v -1.799000 0.000000 -0.081000
v -1.813542 0.000000 -0.081396
v -1.827667 0.000000 -0.082588
v -1.841375 0.000000 -0.084578
v -1.854667 0.000000 -0.087370
v -1.867542 0.000000 -0.090968
v -1.880000 0.000000 -0.095375
v -1.892042 0.000000 -0.100594
v -1.903667 0.000000 -0.106630
v -1.914875 0.000000 -0.113484
v -1.925667 0.000000 -0.121162
v -1.936042 0.000000 -0.129666
v -1.946000 0.000000 -0.139000
v -1.953319 0.000000 -0.146796
v -1.959801 0.000000 -0.154787
v -1.965484 0.000000 -0.163125
v -1.970407 0.000000 -0.171963
v -1.974608 0.000000 -0.181454
v -1.978125 0.000000 -0.191750
v -1.980996 0.000000 -0.203005
v -1.983259 0.000000 -0.215370
v -1.984953 0.000000 -0.229000
v -1.986116 0.000000 -0.244046
v -1.986785 0.000000 -0.260662
v -1.987000 0.000000 -0.279000
v -1.987000 0.000000 -0.682000
v -2.085000 0.000000 -0.682000
v -2.085000 0.000000 -0.258000
v -2.082162 0.000000 -0.213674
v -2.073963 0.000000 -0.173639
v -2.060875 0.000000 -0.137812
v -2.043370 0.000000 -0.106111
v -2.021921 0.000000 -0.078451
v -1.997000 0.000000 -0.054750
v -1.969079 0.000000 -0.034924
v -1.938630 0.000000 -0.018889
v -1.906125 0.000000 -0.006562
v -1.872037 0.000000 0.002139
v -1.836838 0.000000 0.007299
v -1.801000 0.000000 0.009000
v -1.752394 0.000000 0.006739
v -1.708070 0.000000 0.000079
v -1.668016 0.000000 -0.010797
v -1.632222 0.000000 -0.025704
v -1.600679 0.000000 -0.044458
v -1.573375 0.000000 -0.066875
v -1.550300 0.000000 -0.092771
v -1.531445 0.000000 -0.121963
v -1.516797 0.000000 -0.154266
v -1.506347 0.000000 -0.189495
v -1.500085 0.000000 -0.227468
v -1.498000 0.000000 -0.268000
v -2.205000 0.000000 -0.643000
v -2.217081 0.000000 -0.650667
v -2.229315 0.000000 -0.657667
v -2.241688 0.000000 -0.664000
v -2.254185 0.000000 -0.669667
v -2.266794 0.000000 -0.674667
v -2.279500 0.000000 -0.679000
v -2.292289 0.000000 -0.682667
v -2.305148 0.000000 -0.685667
v -2.318063 0.000000 -0.688000
v -2.331019 0.000000 -0.689667
v -2.344002 0.000000 -0.690667
v -2.357000 0.000000 -0.691000
v -2.387332 0.000000 -0.689539
v -2.415736 0.000000 -0.685227
v -2.442078 0.000000 -0.678172
v -2.466222 0.000000 -0.668482
v -2.488033 0.000000 -0.656263
v -2.507375 0.000000 -0.641625
v -2.524113 0.000000 -0.624674
v -2.538111 0.000000 -0.605519
v -2.549234 0.000000 -0.584266
v -2.557347 0.000000 -0.561023
v -2.562314 0.000000 -0.535899
v -2.564000 0.000000 -0.509000
v -2.558196 0.000000 -0.465641
v -2.542148 0.000000 -0.428380
v -2.517906 0.000000 -0.396187
v -2.487519 0.000000 -0.368037
v -2.453034 0.000000 -0.342900
v -2.416500 0.000000 -0.319750
v -2.379967 0.000000 -0.297558
v -2.345482 0.000000 -0.275296
v -2.315094 0.000000 -0.251937
v -2.290852 0.000000 -0.226454
v -2.274805 0.000000 -0.197817
v -2.269000 0.000000 -0.165000
v -2.269733 0.000000 -0.155325
v -2.271945 0.000000 -0.145435
v -2.275656 0.000000 -0.135531
v -2.280889 0.000000 -0.125815
v -2.287663 0.000000 -0.116487
v -2.296000 0.000000 -0.107750
v -2.305920 0.000000 -0.099804
v -2.317444 0.000000 -0.092852
v -2.330594 0.000000 -0.087094
v -2.345389 0.000000 -0.082731
v -2.361851 0.000000 -0.079966
v -2.380000 0.000000 -0.079000
v -2.396662 0.000000 -0.079726
v -2.413125 0.000000 -0.081889
v -2.429359 0.000000 -0.085469
v -2.445333 0.000000 -0.090444
v -2.461016 0.000000 -0.096795
v -2.476375 0.000000 -0.104500
v -2.491380 0.000000 -0.113538
v -2.506000 0.000000 -0.123889
v -2.520203 0.000000 -0.135531
v -2.533958 0.000000 -0.148444
v -2.547235 0.000000 -0.162608
v -2.560000 0.000000 -0.178000
v -2.560000 0.000000 -0.054000
v -2.545681 0.000000 -0.043727
v -2.531199 0.000000 -0.034403
v -2.516516 0.000000 -0.026016
v -2.501593 0.000000 -0.018556
v -2.486392 0.000000 -0.012012
v -2.470875 0.000000 -0.006375
v -2.455004 0.000000 -0.001634
v -2.438741 0.000000 0.002222
v -2.422047 0.000000 0.005203
v -2.404884 0.000000 0.007319
v -2.387215 0.000000 0.008582
v -2.369000 0.000000 0.009000
v -2.342134 0.000000 0.007403
v -2.316657 0.000000 0.002727
v -2.292750 0.000000 -0.004859
v -2.270592 0.000000 -0.015185
v -2.250365 0.000000 -0.028080
v -2.232250 0.000000 -0.043375
v -2.216426 0.000000 -0.060899
v -2.203074 0.000000 -0.080481
v -2.192375 0.000000 -0.101953
v -2.184509 0.000000 -0.125144
v -2.179657 0.000000 -0.149883
v -2.178000 0.000000 -0.176000
v -2.183804 0.000000 -0.225891
v -2.199852 0.000000 -0.267880
v -2.224094 0.000000 -0.303187
v -2.254481 0.000000 -0.333037
v -2.288966 0.000000 -0.358650
v -2.325500 0.000000 -0.381250
v -2.362033 0.000000 -0.402058
v -2.396518 0.000000 -0.422296
v -2.426906 0.000000 -0.443187
v -2.451148 0.000000 -0.465954
v -2.467195 0.000000 -0.491817
v -2.473000 0.000000 -0.522000
v -2.472078 0.000000 -0.533677
v -2.469375 0.000000 -0.544667
v -2.464984 0.000000 -0.554906
v -2.459000 0.000000 -0.564333
v -2.451515 0.000000 -0.572885
v -2.442625 0.000000 -0.580500
v -2.432422 0.000000 -0.587115
v -2.421000 0.000000 -0.592667
v -2.408453 0.000000 -0.597094
v -2.394875 0.000000 -0.600333
v -2.380359 0.000000 -0.602323
v -2.365000 0.000000 -0.603000
v -2.353296 0.000000 -0.602653
v -2.341204 0.000000 -0.601560
v -2.328750 0.000000 -0.599641
v -2.315963 0.000000 -0.596815
v -2.302870 0.000000 -0.593003
v -2.289500 0.000000 -0.588125
v -2.275880 0.000000 -0.582101
v -2.262037 0.000000 -0.574852
v -2.248000 0.000000 -0.566297
v -2.233796 0.000000 -0.556357
v -2.219454 0.000000 -0.544951
v -2.205000 0.000000 -0.532000
vn -0.0000 1.0000 -0.0000
vt 0.555556 0.000000
vt 0.333333 0.000000
vt 0.444444 0.000000
vt 0.777778 0.000000
vt 0.222222 0.000000
vt 0.000000 0.000000
vt 0.111111 0.000000
vt 1.000000 0.000000
vt 0.666667 0.000000
vt 0.888889 0.000000
vt 0.200000 0.000000
vt 0.100000 0.000000
vt 0.800000 0.000000
vt 0.700000 0.000000
vt 0.900000 0.000000
vt 0.400000 0.000000
vt 0.500000 0.000000
vt 0.300000 0.000000
vt 0.600000 0.000000
vt 0.357143 0.000000
vt 0.214286 0.000000
vt 0.285714 0.000000
vt 0.571429 0.000000
vt 0.142857 0.000000
vt 0.071429 0.000000
vt 0.785714 0.000000
vt 0.857143 0.000000
vt 0.428571 0.000000
vt 0.642857 0.000000
vt 0.714286 0.000000
vt 0.928571 0.000000
vt 0.389474 0.000000
vt 0.368421 0.000000
vt 0.378947 0.000000
vt 0.357895 0.000000
vt 0.347368 0.000000
vt 0.410526 0.000000
vt 0.336842 0.000000
vt 0.421053 0.000000
vt 0.326316 0.000000
vt 0.431579 0.000000
vt 0.315789 0.000000
vt 0.442105 0.000000
vt 0.631579 0.000000
vt 0.621053 0.000000
vt 0.642105 0.000000
vt 0.652632 0.000000
vt 0.610526 0.000000
vt 0.663158 0.000000
vt 0.305263 0.000000
vt 0.452632 0.000000
vt 0.673684 0.000000
vt 0.589474 0.000000
vt 0.684211 0.000000
vt 0.578947 0.000000
vt 0.294737 0.000000
vt 0.463158 0.000000
vt 0.694737 0.000000
vt 0.568421 0.000000
vt 0.705263 0.000000
vt 0.557895 0.000000
vt 0.284211 0.000000
vt 0.473684 0.000000
vt 0.715789 0.000000
vt 0.547368 0.000000
vt 0.273684 0.000000
vt 0.484211 0.000000
vt 0.726316 0.000000
vt 0.536842 0.000000
vt 0.736842 0.000000
vt 0.526316 0.000000
vt 0.263158 0.000000
vt 0.494737 0.000000
vt 0.747368 0.000000
vt 0.515789 0.000000
vt 0.252632 0.000000
vt 0.757895 0.000000
vt 0.505263 0.000000
vt 0.010526 0.000000
vt 0.768421 0.000000
vt 0.242105 0.000000
vt 0.989474 0.000000
vt 0.778947 0.000000
vt 0.231579 0.000000
vt 0.021053 0.000000
vt 0.978947 0.000000
vt 0.789474 0.000000
vt 0.221053 0.000000
vt 0.031579 0.000000
vt 0.968421 0.000000
vt 0.210526 0.000000
vt 0.042105 0.000000
vt 0.810526 0.000000
vt 0.957895 0.000000
vt 0.821053 0.000000
vt 0.947368 0.000000
vt 0.052632 0.000000
vt 0.831579 0.000000
vt 0.936842 0.000000
vt 0.842105 0.000000
vt 0.926316 0.000000
vt 0.189474 0.000000
vt 0.063158 0.000000
vt 0.852632 0.000000
vt 0.915789 0.000000
vt 0.863158 0.000000
vt 0.905263 0.000000
vt 0.178947 0.000000
vt 0.073684 0.000000
vt 0.873684 0.000000
vt 0.894737 0.000000
vt 0.884211 0.000000
vt 0.168421 0.000000
vt 0.084211 0.000000
vt 0.157895 0.000000
vt 0.094737 0.000000
vt 0.147368 0.000000
vt 0.105263 0.000000
vt 0.136842 0.000000
vt 0.115789 0.000000
vt 0.126316 0.000000
vt 0.653465 0.000000
vt 0.633663 0.000000
vt 0.643564 0.000000
vt 0.623762 0.000000
vt 0.613861 0.000000
vt 0.603960 0.000000
vt 0.663366 0.000000
vt 0.594059 0.000000
vt 0.584158 0.000000
vt 0.574257 0.000000
vt 0.673267 0.000000
vt 0.564356 0.000000
vt 0.554455 0.000000
vt 0.683168 0.000000
vt 0.544554 0.000000
vt 0.534653 0.000000
vt 0.693069 0.000000
vt 0.524752 0.000000
vt 0.415842 0.000000
vt 0.425743 0.000000
vt 0.435644 0.000000
vt 0.445545 0.000000
vt 0.455446 0.000000
vt 0.465347 0.000000
vt 0.475248 0.000000
vt 0.485149 0.000000
vt 0.495050 0.000000
vt 0.504951 0.000000
vt 0.514852 0.000000
vt 0.702970 0.000000
vt 0.396040 0.000000
vt 0.405941 0.000000
vt 0.386139 0.000000
vt 0.376238 0.000000
vt 0.366337 0.000000
vt 0.712871 0.000000
vt 0.356436 0.000000
vt 0.346535 0.000000
vt 0.722772 0.000000
vt 0.336634 0.000000
vt 0.326733 0.000000
vt 0.732673 0.000000
vt 0.316832 0.000000
vt 0.742574 0.000000
vt 0.306931 0.000000
vt 0.297030 0.000000
vt 0.752475 0.000000
vt 0.287129 0.000000
vt 0.762376 0.000000
vt 0.277228 0.000000
vt 0.267327 0.000000
vt 0.772277 0.000000
vt 0.019802 0.000000
vt 0.009901 0.000000
vt 0.029703 0.000000
vt 0.257426 0.000000
vt 0.782178 0.000000
vt 0.247525 0.000000
vt 0.039604 0.000000
vt 0.792079 0.000000
vt 0.237624 0.000000
vt 0.227723 0.000000
vt 0.801980 0.000000
vt 0.217822 0.000000
vt 0.811881 0.000000
vt 0.207921 0.000000
vt 0.198020 0.000000
vt 0.821782 0.000000
vt 0.188119 0.000000
vt 0.049505 0.000000
vt 0.059406 0.000000
vt 0.069307 0.000000
vt 0.178218 0.000000
vt 0.079208 0.000000
vt 0.089109 0.000000
vt 0.099010 0.000000
vt 0.168317 0.000000
vt 0.831683 0.000000
vt 0.108911 0.000000
vt 0.118812 0.000000
vt 0.128713 0.000000
vt 0.158416 0.000000
vt 0.138614 0.000000
vt 0.148515 0.000000
vt 0.841584 0.000000
vt 0.990099 0.000000
vt 0.980198 0.000000
vt 0.851485 0.000000
vt 0.970297 0.000000
vt 0.960396 0.000000
vt 0.861386 0.000000
vt 0.950495 0.000000
vt 0.940594 0.000000
vt 0.930693 0.000000
vt 0.871287 0.000000
vt 0.920792 0.000000
vt 0.910891 0.000000
vt 0.900990 0.000000
vt 0.881188 0.000000
vt 0.891089 0.000000
vt 0.688312 0.000000
vt 0.662338 0.000000
vt 0.675325 0.000000
vt 0.649351 0.000000
vt 0.025974 0.000000
vt 0.012987 0.000000
vt 0.038961 0.000000
vt 0.636364 0.000000
vt 0.051948 0.000000
vt 0.987013 0.000000
vt 0.623377 0.000000
vt 0.701299 0.000000
vt 0.064935 0.000000
vt 0.610390 0.000000
vt 0.077922 0.000000
vt 0.597403 0.000000
vt 0.974026 0.000000
vt 0.090909 0.000000
vt 0.584416 0.000000
vt 0.103896 0.000000
vt 0.116883 0.000000
vt 0.558442 0.000000
vt 0.961039 0.000000
vt 0.129870 0.000000
vt 0.545455 0.000000
vt 0.727273 0.000000
vt 0.532468 0.000000
vt 0.155844 0.000000
vt 0.519481 0.000000
vt 0.506494 0.000000
vt 0.168831 0.000000
vt 0.948052 0.000000
vt 0.493506 0.000000
vt 0.181818 0.000000
vt 0.480519 0.000000
vt 0.740260 0.000000
vt 0.194805 0.000000
vt 0.467532 0.000000
vt 0.207792 0.000000
vt 0.935065 0.000000
vt 0.454545 0.000000
vt 0.220779 0.000000
vt 0.233766 0.000000
vt 0.441558 0.000000
vt 0.246753 0.000000
vt 0.753247 0.000000
vt 0.259740 0.000000
vt 0.415584 0.000000
vt 0.272727 0.000000
vt 0.402597 0.000000
vt 0.922078 0.000000
vt 0.389610 0.000000
vt 0.298701 0.000000
vt 0.376623 0.000000
vt 0.311688 0.000000
vt 0.363636 0.000000
vt 0.324675 0.000000
vt 0.350649 0.000000
vt 0.337662 0.000000
vt 0.766234 0.000000
vt 0.909091 0.000000
vt 0.779221 0.000000
vt 0.896104 0.000000
vt 0.792208 0.000000
vt 0.883117 0.000000
vt 0.805195 0.000000
vt 0.870130 0.000000
vt 0.818182 0.000000
vt 0.831169 0.000000
vt 0.844156 0.000000
vt 0.107438 0.000000
vt 0.099174 0.000000
vt 0.082645 0.000000
vt 0.074380 0.000000
vt 0.115702 0.000000
vt 0.066116 0.000000
vt 0.057851 0.000000
vt 0.123967 0.000000
vt 0.049587 0.000000
vt 0.041322 0.000000
vt 0.132231 0.000000
vt 0.033058 0.000000
vt 0.024793 0.000000
vt 0.140496 0.000000
vt 0.016529 0.000000
vt 0.008264 0.000000
vt 0.148760 0.000000
vt 0.933884 0.000000
vt 0.942149 0.000000
vt 0.950413 0.000000
vt 0.958678 0.000000
vt 0.966942 0.000000
vt 0.975207 0.000000
vt 0.983471 0.000000
vt 0.991736 0.000000
vt 0.157025 0.000000
vt 0.917355 0.000000
vt 0.925620 0.000000
vt 0.165289 0.000000
vt 0.900826 0.000000
vt 0.173554 0.000000
vt 0.892562 0.000000
vt 0.884298 0.000000
vt 0.876033 0.000000
vt 0.867769 0.000000
vt 0.859504 0.000000
vt 0.851240 0.000000
vt 0.842975 0.000000
vt 0.834711 0.000000
vt 0.826446 0.000000
vt 0.190083 0.000000
vt 0.809917 0.000000
vt 0.198347 0.000000
vt 0.801653 0.000000
vt 0.793388 0.000000
vt 0.206612 0.000000
vt 0.785124 0.000000
vt 0.776860 0.000000
vt 0.214876 0.000000
vt 0.768595 0.000000
vt 0.223140 0.000000
vt 0.760331 0.000000
vt 0.752066 0.000000
vt 0.231405 0.000000
vt 0.743802 0.000000
vt 0.239669 0.000000
vt 0.735537 0.000000
vt 0.247934 0.000000
vt 0.256198 0.000000
vt 0.719008 0.000000
vt 0.264463 0.000000
vt 0.710744 0.000000
vt 0.280992 0.000000
vt 0.289256 0.000000
vt 0.702479 0.000000
vt 0.297521 0.000000
vt 0.504132 0.000000
vt 0.487603 0.000000
vt 0.495868 0.000000
vt 0.694215 0.000000
vt 0.305785 0.000000
vt 0.479339 0.000000
vt 0.314050 0.000000
vt 0.685950 0.000000
vt 0.471074 0.000000
vt 0.322314 0.000000
vt 0.462810 0.000000
vt 0.330579 0.000000
vt 0.338843 0.000000
vt 0.677686 0.000000
vt 0.347107 0.000000
vt 0.446281 0.000000
vt 0.355372 0.000000
vt 0.438017 0.000000
vt 0.669421 0.000000
vt 0.429752 0.000000
vt 0.371901 0.000000
vt 0.421488 0.000000
vt 0.380165 0.000000
vt 0.413223 0.000000
vt 0.388430 0.000000
vt 0.404959 0.000000
vt 0.661157 0.000000
vt 0.396694 0.000000
vt 0.652893 0.000000
vt 0.512397 0.000000
vt 0.520661 0.000000
vt 0.644628 0.000000
vt 0.528926 0.000000
vt 0.537190 0.000000
vt 0.628099 0.000000
vt 0.553719 0.000000
vt 0.561983 0.000000
vt 0.619835 0.000000
vt 0.570248 0.000000
vt 0.578512 0.000000
vt 0.611570 0.000000
vt 0.586777 0.000000
vt 0.595041 0.000000
vt 0.603306 0.000000
s 0
f 6/1/1 4/2/1 5/3/1
f 6/1/1 8/4/1 4/2/1
f 8/4/1 3/5/1 4/2/1
f 3/5/1 1/6/1 2/7/1
f 3/5/1 10/8/1 1/6/1
f 6/1/1 7/9/1 8/4/1
f 9/10/1 3/5/1 8/4/1
f 9/10/1 10/8/1 3/5/1
f 13/11/1 11/6/1 12/12/1
f 13/11/1 19/13/1 11/6/1
f 19/13/1 18/14/1 11/6/1
f 13/11/1 21/8/1 19/13/1
f 20/15/1 18/14/1 19/13/1
f 13/11/1 15/16/1 21/8/1
f 15/16/1 20/15/1 21/8/1
f 15/16/1 16/17/1 20/15/1
f 16/17/1 18/14/1 20/15/1
f 13/11/1 14/18/1 15/16/1
f 17/19/1 18/14/1 16/17/1
f 27/20/1 25/21/1 26/22/1
f 27/20/1 29/17/1 25/21/1
f 29/17/1 30/23/1 25/21/1
f 30/23/1 24/24/1 25/21/1
f 24/24/1 22/6/1 23/25/1
f 24/24/1 33/26/1 22/6/1
f 33/26/1 34/27/1 22/6/1
f 34/27/1 36/8/1 22/6/1
f 27/20/1 28/28/1 29/17/1
f 31/29/1 24/24/1 30/23/1
f 24/24/1 32/30/1 33/26/1
f 35/31/1 36/8/1 34/27/1
f 31/29/1 32/30/1 24/24/1
f 39/9/1 37/6/1 38/2/1
f 39/9/1 40/8/1 37/6/1
f 78/32/1 76/33/1 77/34/1
f 78/32/1 75/35/1 76/33/1
f 79/16/1 75/35/1 78/32/1
f 79/16/1 74/36/1 75/35/1
f 80/37/1 74/36/1 79/16/1
f 80/37/1 73/38/1 74/36/1
f 81/39/1 73/38/1 80/37/1
f 81/39/1 72/40/1 73/38/1
f 82/41/1 72/40/1 81/39/1
f 82/41/1 71/42/1 72/40/1
f 83/43/1 101/44/1 82/41/1
f 101/44/1 71/42/1 82/41/1
f 83/43/1 100/45/1 101/44/1
f 102/46/1 71/42/1 101/44/1
f 103/47/1 71/42/1 102/46/1
f 83/43/1 99/48/1 100/45/1
f 104/49/1 71/42/1 103/47/1
f 83/43/1 98/19/1 99/48/1
f 104/49/1 70/50/1 71/42/1
f 84/51/1 98/19/1 83/43/1
f 105/52/1 70/50/1 104/49/1
f 84/51/1 97/53/1 98/19/1
f 106/54/1 70/50/1 105/52/1
f 84/51/1 96/55/1 97/53/1
f 106/54/1 69/56/1 70/50/1
f 85/57/1 96/55/1 84/51/1
f 107/58/1 69/56/1 106/54/1
f 85/57/1 95/59/1 96/55/1
f 108/60/1 69/56/1 107/58/1
f 85/57/1 94/61/1 95/59/1
f 108/60/1 68/62/1 69/56/1
f 86/63/1 94/61/1 85/57/1
f 109/64/1 68/62/1 108/60/1
f 86/63/1 93/65/1 94/61/1
f 109/64/1 67/66/1 68/62/1
f 87/67/1 93/65/1 86/63/1
f 110/68/1 67/66/1 109/64/1
f 87/67/1 92/69/1 93/65/1
f 111/70/1 67/66/1 110/68/1
f 87/67/1 91/71/1 92/69/1
f 111/70/1 66/72/1 67/66/1
f 88/73/1 91/71/1 87/67/1
f 112/74/1 66/72/1 111/70/1
f 88/73/1 90/75/1 91/71/1
f 112/74/1 65/76/1 66/72/1
f 41/6/1 90/75/1 88/73/1
f 113/77/1 65/76/1 112/74/1
f 41/6/1 89/78/1 90/75/1
f 42/79/1 89/78/1 41/6/1
f 42/79/1 136/8/1 89/78/1
f 114/80/1 65/76/1 113/77/1
f 114/80/1 64/81/1 65/76/1
f 42/79/1 135/82/1 136/8/1
f 115/83/1 64/81/1 114/80/1
f 115/83/1 63/84/1 64/81/1
f 43/85/1 135/82/1 42/79/1
f 43/85/1 134/86/1 135/82/1
f 116/87/1 63/84/1 115/83/1
f 116/87/1 62/88/1 63/84/1
f 44/89/1 134/86/1 43/85/1
f 117/13/1 62/88/1 116/87/1
f 44/89/1 133/90/1 134/86/1
f 117/13/1 61/91/1 62/88/1
f 45/92/1 133/90/1 44/89/1
f 118/93/1 61/91/1 117/13/1
f 45/92/1 132/94/1 133/90/1
f 119/95/1 61/91/1 118/93/1
f 45/92/1 131/96/1 132/94/1
f 119/95/1 60/11/1 61/91/1
f 46/97/1 131/96/1 45/92/1
f 120/98/1 60/11/1 119/95/1
f 46/97/1 130/99/1 131/96/1
f 121/100/1 60/11/1 120/98/1
f 46/97/1 129/101/1 130/99/1
f 121/100/1 59/102/1 60/11/1
f 47/103/1 129/101/1 46/97/1
f 122/104/1 59/102/1 121/100/1
f 47/103/1 128/105/1 129/101/1
f 123/106/1 59/102/1 122/104/1
f 47/103/1 127/107/1 128/105/1
f 123/106/1 58/108/1 59/102/1
f 48/109/1 127/107/1 47/103/1
f 124/110/1 58/108/1 123/106/1
f 48/109/1 126/111/1 127/107/1
f 125/112/1 58/108/1 124/110/1
f 48/109/1 125/112/1 126/111/1
f 48/109/1 58/108/1 125/112/1
f 48/109/1 57/113/1 58/108/1
f 49/114/1 57/113/1 48/109/1
f 49/114/1 56/115/1 57/113/1
f 50/116/1 56/115/1 49/114/1
f 50/116/1 55/117/1 56/115/1
f 51/118/1 55/117/1 50/116/1
f 51/118/1 54/119/1 55/117/1
f 52/120/1 54/119/1 51/118/1
f 52/120/1 53/121/1 54/119/1
f 203/122/1 201/123/1 202/124/1
f 203/122/1 200/125/1 201/123/1
f 203/122/1 199/126/1 200/125/1
f 203/122/1 198/127/1 199/126/1
f 204/128/1 198/127/1 203/122/1
f 204/128/1 197/129/1 198/127/1
f 204/128/1 196/130/1 197/129/1
f 204/128/1 195/131/1 196/130/1
f 205/132/1 195/131/1 204/128/1
f 205/132/1 194/133/1 195/131/1
f 205/132/1 193/134/1 194/133/1
f 206/135/1 193/134/1 205/132/1
f 206/135/1 192/136/1 193/134/1
f 206/135/1 191/137/1 192/136/1
f 207/138/1 191/137/1 206/135/1
f 207/138/1 190/139/1 191/137/1
f 207/138/1 179/140/1 190/139/1
f 179/140/1 180/141/1 190/139/1
f 180/141/1 181/142/1 190/139/1
f 181/142/1 182/143/1 190/139/1
f 182/143/1 183/144/1 190/139/1
f 183/144/1 184/145/1 190/139/1
f 184/145/1 185/146/1 190/139/1
f 185/146/1 186/147/1 190/139/1
f 186/147/1 187/148/1 190/139/1
f 187/148/1 188/149/1 190/139/1
f 188/149/1 189/150/1 190/139/1
f 208/151/1 177/152/1 207/138/1
f 177/152/1 178/153/1 207/138/1
f 178/153/1 179/140/1 207/138/1
f 208/151/1 176/154/1 177/152/1
f 208/151/1 175/155/1 176/154/1
f 208/151/1 174/156/1 175/155/1
f 209/157/1 174/156/1 208/151/1
f 209/157/1 173/158/1 174/156/1
f 209/157/1 172/159/1 173/158/1
f 210/160/1 172/159/1 209/157/1
f 210/160/1 171/161/1 172/159/1
f 210/160/1 170/162/1 171/161/1
f 211/163/1 170/162/1 210/160/1
f 211/163/1 169/164/1 170/162/1
f 212/165/1 169/164/1 211/163/1
f 212/165/1 168/166/1 169/164/1
f 212/165/1 167/167/1 168/166/1
f 213/168/1 167/167/1 212/165/1
f 213/168/1 166/169/1 167/167/1
f 214/170/1 166/169/1 213/168/1
f 214/170/1 165/171/1 166/169/1
f 214/170/1 164/172/1 165/171/1
f 215/173/1 164/172/1 214/170/1
f 139/174/1 137/6/1 138/175/1
f 139/174/1 140/176/1 137/6/1
f 140/176/1 238/8/1 137/6/1
f 215/173/1 163/177/1 164/172/1
f 216/178/1 163/177/1 215/173/1
f 216/178/1 162/179/1 163/177/1
f 141/180/1 238/8/1 140/176/1
f 217/181/1 162/179/1 216/178/1
f 217/181/1 161/182/1 162/179/1
f 217/181/1 160/183/1 161/182/1
f 218/184/1 160/183/1 217/181/1
f 218/184/1 159/185/1 160/183/1
f 219/186/1 159/185/1 218/184/1
f 219/186/1 158/187/1 159/185/1
f 219/186/1 157/188/1 158/187/1
f 220/189/1 157/188/1 219/186/1
f 220/189/1 156/190/1 157/188/1
f 142/191/1 238/8/1 141/180/1
f 143/192/1 238/8/1 142/191/1
f 144/193/1 238/8/1 143/192/1
f 220/189/1 155/194/1 156/190/1
f 145/195/1 238/8/1 144/193/1
f 146/196/1 238/8/1 145/195/1
f 147/197/1 238/8/1 146/196/1
f 220/189/1 154/198/1 155/194/1
f 221/199/1 154/198/1 220/189/1
f 148/200/1 238/8/1 147/197/1
f 149/201/1 238/8/1 148/200/1
f 150/202/1 238/8/1 149/201/1
f 221/199/1 153/203/1 154/198/1
f 151/204/1 238/8/1 150/202/1
f 152/205/1 238/8/1 151/204/1
f 153/203/1 238/8/1 152/205/1
f 221/199/1 238/8/1 153/203/1
f 222/206/1 238/8/1 221/199/1
f 222/206/1 237/207/1 238/8/1
f 222/206/1 236/208/1 237/207/1
f 223/209/1 236/208/1 222/206/1
f 223/209/1 235/210/1 236/208/1
f 223/209/1 234/211/1 235/210/1
f 224/212/1 234/211/1 223/209/1
f 224/212/1 233/213/1 234/211/1
f 224/212/1 232/214/1 233/213/1
f 224/212/1 231/215/1 232/214/1
f 225/216/1 231/215/1 224/212/1
f 225/216/1 230/217/1 231/215/1
f 225/216/1 229/218/1 230/217/1
f 225/216/1 228/219/1 229/218/1
f 226/220/1 228/219/1 225/216/1
f 226/220/1 227/221/1 228/219/1
f 292/222/1 290/223/1 291/224/1
f 292/222/1 289/225/1 290/223/1
f 241/226/1 239/6/1 240/227/1
f 241/226/1 316/8/1 239/6/1
f 242/228/1 316/8/1 241/226/1
f 292/222/1 288/229/1 289/225/1
f 243/230/1 316/8/1 242/228/1
f 243/230/1 315/231/1 316/8/1
f 292/222/1 287/232/1 288/229/1
f 293/233/1 287/232/1 292/222/1
f 244/234/1 315/231/1 243/230/1
f 293/233/1 286/235/1 287/232/1
f 245/236/1 315/231/1 244/234/1
f 293/233/1 285/237/1 286/235/1
f 245/236/1 314/238/1 315/231/1
f 246/239/1 314/238/1 245/236/1
f 293/233/1 284/240/1 285/237/1
f 294/30/1 284/240/1 293/233/1
f 247/241/1 314/238/1 246/239/1
f 294/30/1 283/23/1 284/240/1
f 248/242/1 314/238/1 247/241/1
f 294/30/1 282/243/1 283/23/1
f 248/242/1 313/244/1 314/238/1
f 249/245/1 313/244/1 248/242/1
f 294/30/1 281/246/1 282/243/1
f 250/24/1 313/244/1 249/245/1
f 295/247/1 281/246/1 294/30/1
f 295/247/1 280/248/1 281/246/1
f 251/249/1 313/244/1 250/24/1
f 295/247/1 279/250/1 280/248/1
f 295/247/1 278/251/1 279/250/1
f 252/252/1 313/244/1 251/249/1
f 252/252/1 312/253/1 313/244/1
f 295/247/1 277/254/1 278/251/1
f 253/255/1 312/253/1 252/252/1
f 295/247/1 276/256/1 277/254/1
f 296/257/1 276/256/1 295/247/1
f 254/258/1 312/253/1 253/255/1
f 296/257/1 275/259/1 276/256/1
f 255/260/1 312/253/1 254/258/1
f 255/260/1 311/261/1 312/253/1
f 296/257/1 274/262/1 275/259/1
f 256/263/1 311/261/1 255/260/1
f 257/264/1 311/261/1 256/263/1
f 296/257/1 273/265/1 274/262/1
f 258/266/1 311/261/1 257/264/1
f 296/257/1 272/28/1 273/265/1
f 297/267/1 272/28/1 296/257/1
f 259/268/1 311/261/1 258/266/1
f 297/267/1 271/269/1 272/28/1
f 260/270/1 311/261/1 259/268/1
f 297/267/1 270/271/1 271/269/1
f 260/270/1 310/272/1 311/261/1
f 261/22/1 310/272/1 260/270/1
f 297/267/1 269/273/1 270/271/1
f 262/274/1 310/272/1 261/22/1
f 297/267/1 268/275/1 269/273/1
f 263/276/1 310/272/1 262/274/1
f 297/267/1 267/277/1 268/275/1
f 264/278/1 310/272/1 263/276/1
f 297/267/1 266/279/1 267/277/1
f 265/280/1 310/272/1 264/278/1
f 297/267/1 265/280/1 266/279/1
f 297/267/1 310/272/1 265/280/1
f 298/281/1 310/272/1 297/267/1
f 298/281/1 309/282/1 310/272/1
f 299/283/1 309/282/1 298/281/1
f 299/283/1 308/284/1 309/282/1
f 300/285/1 308/284/1 299/283/1
f 300/285/1 307/286/1 308/284/1
f 301/287/1 307/286/1 300/285/1
f 301/287/1 306/288/1 307/286/1
f 302/289/1 306/288/1 301/287/1
f 302/289/1 305/27/1 306/288/1
f 303/290/1 305/27/1 302/289/1
f 303/290/1 304/291/1 305/27/1
f 330/292/1 328/239/1 329/293/1
f 330/292/1 327/294/1 328/239/1
f 330/292/1 326/295/1 327/294/1
f 331/296/1 326/295/1 330/292/1
f 331/296/1 325/297/1 326/295/1
f 331/296/1 324/298/1 325/297/1
f 332/299/1 324/298/1 331/296/1
f 332/299/1 323/300/1 324/298/1
f 332/299/1 322/301/1 323/300/1
f 333/302/1 322/301/1 332/299/1
f 333/302/1 321/303/1 322/301/1
f 333/302/1 320/304/1 321/303/1
f 334/305/1 320/304/1 333/302/1
f 334/305/1 319/306/1 320/304/1
f 334/305/1 318/307/1 319/306/1
f 335/308/1 318/307/1 334/305/1
f 335/308/1 317/6/1 318/307/1
f 335/308/1 430/309/1 317/6/1
f 430/309/1 431/310/1 317/6/1
f 431/310/1 432/311/1 317/6/1
f 432/311/1 433/312/1 317/6/1
f 433/312/1 434/313/1 317/6/1
f 434/313/1 435/314/1 317/6/1
f 435/314/1 436/315/1 317/6/1
f 436/315/1 437/316/1 317/6/1
f 437/316/1 438/8/1 317/6/1
f 336/317/1 428/318/1 335/308/1
f 428/318/1 429/319/1 335/308/1
f 429/319/1 430/309/1 335/308/1
f 337/320/1 426/321/1 336/317/1
f 426/321/1 427/282/1 336/317/1
f 427/282/1 428/318/1 336/317/1
f 338/322/1 425/323/1 337/320/1
f 425/323/1 426/321/1 337/320/1
f 338/322/1 424/324/1 425/323/1
f 338/322/1 423/325/1 424/324/1
f 338/322/1 422/326/1 423/325/1
f 338/322/1 421/327/1 422/326/1
f 338/322/1 420/328/1 421/327/1
f 339/255/1 420/328/1 338/322/1
f 339/255/1 419/329/1 420/328/1
f 339/255/1 418/330/1 419/329/1
f 339/255/1 417/331/1 418/330/1
f 340/332/1 417/331/1 339/255/1
f 340/332/1 416/289/1 417/331/1
f 340/332/1 415/333/1 416/289/1
f 341/334/1 415/333/1 340/332/1
f 341/334/1 414/335/1 415/333/1
f 341/334/1 413/336/1 414/335/1
f 342/337/1 413/336/1 341/334/1
f 342/337/1 412/338/1 413/336/1
f 342/337/1 411/339/1 412/338/1
f 343/340/1 411/339/1 342/337/1
f 343/340/1 410/341/1 411/339/1
f 344/342/1 410/341/1 343/340/1
f 344/342/1 409/343/1 410/341/1
f 344/342/1 408/344/1 409/343/1
f 345/345/1 408/344/1 344/342/1
f 345/345/1 407/346/1 408/344/1
f 346/347/1 407/346/1 345/345/1
f 346/347/1 406/348/1 407/346/1
f 347/349/1 406/348/1 346/347/1
f 347/349/1 405/247/1 406/348/1
f 348/350/1 405/247/1 347/349/1
f 348/350/1 404/351/1 405/247/1
f 349/352/1 404/351/1 348/350/1
f 350/270/1 404/351/1 349/352/1
f 350/270/1 403/353/1 404/351/1
f 351/354/1 403/353/1 350/270/1
f 352/355/1 403/353/1 351/354/1
f 352/355/1 402/356/1 403/353/1
f 353/357/1 402/356/1 352/355/1
f 378/358/1 376/359/1 377/360/1
f 353/357/1 401/361/1 402/356/1
f 354/362/1 401/361/1 353/357/1
f 378/358/1 375/363/1 376/359/1
f 355/364/1 401/361/1 354/362/1
f 355/364/1 400/365/1 401/361/1
f 378/358/1 374/366/1 375/363/1
f 356/367/1 400/365/1 355/364/1
f 378/358/1 373/368/1 374/366/1
f 357/369/1 400/365/1 356/367/1
f 358/370/1 400/365/1 357/369/1
f 358/370/1 399/371/1 400/365/1
f 378/358/1 372/262/1 373/368/1
f 359/372/1 399/371/1 358/370/1
f 378/358/1 371/373/1 372/262/1
f 360/374/1 399/371/1 359/372/1
f 378/358/1 370/375/1 371/373/1
f 360/374/1 398/376/1 399/371/1
f 361/277/1 398/376/1 360/374/1
f 378/358/1 369/377/1 370/375/1
f 362/378/1 398/376/1 361/277/1
f 378/358/1 368/379/1 369/377/1
f 363/380/1 398/376/1 362/378/1
f 378/358/1 367/381/1 368/379/1
f 364/382/1 398/376/1 363/380/1
f 378/358/1 366/383/1 367/381/1
f 364/382/1 397/384/1 398/376/1
f 365/385/1 397/384/1 364/382/1
f 378/358/1 365/385/1 366/383/1
f 378/358/1 397/384/1 365/385/1
f 378/358/1 396/386/1 397/384/1
f 379/387/1 396/386/1 378/358/1
f 380/388/1 396/386/1 379/387/1
f 380/388/1 395/389/1 396/386/1
f 381/390/1 395/389/1 380/388/1
f 381/390/1 394/229/1 395/389/1
f 382/391/1 394/229/1 381/390/1
f 383/246/1 394/229/1 382/391/1
f 383/246/1 393/392/1 394/229/1
f 384/393/1 393/392/1 383/246/1
f 385/394/1 393/392/1 384/393/1
f 385/394/1 392/395/1 393/392/1
f 386/396/1 392/395/1 385/394/1
f 387/397/1 392/395/1 386/396/1
f 387/397/1 391/398/1 392/395/1
f 388/399/1 391/398/1 387/397/1
f 389/400/1 391/398/1 388/399/1
f 389/400/1 390/401/1 391/398/1
